<!DOCTYPE svg PUBLIC "-//W3C//DTD SVG 1.1//EN" "http://www.w3.org/Graphics/SVG/1.1/DTD/svg11.dtd">

<svg version="1.1" id="Layer_1" xmlns="http://www.w3.org/2000/svg" xmlns:xlink="http://www.w3.org/1999/xlink" viewBox="-20.32 -20.32 548.64 548.64" xml:space="preserve" width="800px" height="800px" fill="#000000" stroke="#000000" stroke-width="3.556">

<g id="SVGRepo_bgCarrier" stroke-width="0"/>

<g id="SVGRepo_tracerCarrier" stroke-linecap="round" stroke-linejoin="round"/>

<g id="SVGRepo_iconCarrier"> <circle style="fill:#d6f3ff;" cx="254" cy="254" r="254"/> <path style="fill:#FFFFFF;" d="M121.6,103.6v301.2c0,6.8,5.6,12.4,12.4,12.4h183.6v-56c0-6.8,5.6-12.4,12.4-12.4h56V103.6 c0-6.8-5.6-12.4-12.4-12.4H134C127.2,90.8,121.6,96.4,121.6,103.6z"/> <path style="fill:#E6E9EE;" d="M317.6,417.2l68.8-68.8h-56c-6.8,0-12.4,5.6-12.4,12.4v56.4H317.6z"/> <rect x="152" y="132" style="fill:#FFD05B;" width="37.2" height="37.2"/> <rect x="152" y="195.2" style="fill:#FF7058;" width="37.2" height="37.2"/> <rect x="152" y="258.4" style="fill:#4CDBC4;" width="37.2" height="37.2"/> <g> <rect x="206" y="132" style="fill:#E6E9EE;" width="150" height="10.4"/> <rect x="206" y="158.8" style="fill:#E6E9EE;" width="94.4" height="10.4"/> <rect x="206" y="195.2" style="fill:#E6E9EE;" width="150" height="10.4"/> <rect x="206" y="222" style="fill:#E6E9EE;" width="94.4" height="10.4"/> <rect x="206" y="258.4" style="fill:#E6E9EE;" width="150" height="10.4"/> <rect x="206" y="285.2" style="fill:#E6E9EE;" width="94.4" height="10.4"/> </g> </g>

</svg>